<?xml version="1.0" standalone="no"?>
<!DOCTYPE svg PUBLIC "-//W3C//DTD SVG 20010904//EN"
 "http://www.w3.org/TR/2001/REC-SVG-20010904/DTD/svg10.dtd">
<svg version="1.0" xmlns="http://www.w3.org/2000/svg"
 width="273.000000pt" height="185.000000pt" viewBox="0 0 273.000000 185.000000"
 preserveAspectRatio="xMidYMid meet">

<g transform="translate(0.000000,185.000000) scale(0.100000,-0.100000)"
fill="#000000" stroke="none">
<path d="M12 1843 c10 -2 18 -9 18 -15 0 -5 -7 -8 -15 -4 -10 4 -15 -1 -15
-14 0 -14 7 -20 23 -20 12 0 29 -5 37 -10 11 -7 5 -8 -21 -5 -36 4 -36 4 -37
-35 -1 -22 2 -40 8 -40 5 0 7 6 4 13 -3 8 6 14 27 15 24 2 30 -1 26 -12 -4
-10 -1 -13 8 -9 8 3 12 10 8 16 -3 6 -1 7 5 3 7 -4 12 -18 12 -32 0 -17 -4
-23 -12 -18 -18 11 -48 12 -48 2 0 -5 -8 -8 -17 -6 -15 3 -18 -7 -21 -64 l-3
-68 48 -1 c26 -1 51 -1 54 -1 9 2 5 -126 -4 -135 -5 -4 -10 3 -14 15 -3 12 -9
19 -14 16 -5 -3 -9 0 -9 5 0 6 8 11 18 11 14 0 15 2 2 10 -11 7 -17 4 -24 -10
-9 -21 -26 -27 -26 -10 0 5 -7 7 -15 3 -13 -5 -13 -8 5 -20 11 -8 25 -11 30
-8 6 3 10 1 10 -4 0 -6 -8 -11 -19 -11 -33 0 -40 -22 -38 -115 l2 -88 32 -2
c20 -1 30 3 26 9 -3 6 -2 8 2 3 5 -4 17 1 27 10 14 12 21 14 30 5 18 -18 19
-49 3 -56 -8 -3 -15 -12 -15 -20 0 -10 -6 -13 -15 -10 -10 4 -15 0 -15 -15 0
-12 -4 -21 -10 -21 -5 0 -6 7 -3 17 4 11 3 14 -5 9 -18 -11 -14 -36 6 -37 10
0 12 -3 4 -6 -17 -7 -15 -28 4 -43 8 -8 14 -9 13 -4 -4 22 2 44 12 44 5 0 9
-8 7 -17 -1 -10 1 -24 5 -30 5 -8 4 -13 -2 -13 -6 0 -11 -8 -11 -17 0 -13 3
-14 12 -5 17 17 26 15 33 -9 6 -17 12 -19 33 -14 31 8 72 47 55 52 -6 2 -8 13
-6 24 5 16 8 18 14 7 6 -9 9 -9 9 -1 0 7 -8 17 -18 22 -16 10 -16 10 1 11 10
0 15 5 12 11 -4 6 -13 8 -20 5 -23 -8 -36 16 -17 31 16 14 16 14 0 9 -20 -6
-34 10 -16 18 7 4 3 4 -8 2 -21 -3 -21 -2 -8 29 7 18 10 36 6 40 -4 5 1 5 11
2 10 -4 24 -7 30 -7 6 0 2 -7 -9 -16 -18 -14 -18 -15 4 -4 12 6 22 16 22 21 0
6 7 9 15 5 11 -4 15 2 16 22 l1 27 8 -25 8 -25 1 27 c1 21 5 26 21 23 11 -2
20 1 20 6 0 6 3 8 8 5 13 -8 44 22 36 36 -4 7 -4 10 0 6 10 -8 66 11 66 23 0
4 7 6 15 3 8 -4 22 -1 30 6 8 7 15 9 15 5 0 -4 11 4 25 19 14 15 25 31 25 37
0 12 88 98 94 92 2 -3 13 0 24 6 10 6 51 11 91 12 39 1 74 5 76 9 7 12 105 -8
149 -31 22 -11 66 -47 96 -79 56 -59 113 -96 130 -85 6 3 20 -1 32 -10 l23
-17 -22 7 c-18 5 -23 2 -23 -10 0 -12 5 -15 17 -10 10 4 26 10 36 12 20 6 22
19 4 27 -9 4 -9 8 -1 11 7 3 10 16 7 28 -3 17 0 15 13 -8 22 -39 80 -104 118
-133 29 -21 61 -63 38 -48 -6 3 -13 2 -17 -4 -3 -6 3 -10 15 -10 19 0 21 4 16
25 -5 18 -3 23 8 19 7 -3 16 2 20 11 3 9 2 13 -3 10 -5 -3 -12 -1 -16 5 -4 6
-11 8 -16 4 -6 -3 -7 7 -4 26 4 20 2 29 -5 25 -5 -3 -10 -1 -10 4 0 6 -8 11
-17 11 -21 0 -83 52 -83 70 0 7 6 5 16 -5 11 -11 25 -14 42 -10 22 5 24 4 13
-9 -28 -33 9 -14 47 24 21 22 42 37 45 34 3 -4 -1 -13 -9 -21 -18 -19 -10 -30
10 -14 11 9 15 9 19 -1 4 -8 8 -9 14 -3 15 19 33 15 33 -8 0 -17 2 -19 9 -8 5
8 7 21 4 29 -5 12 -2 12 14 4 11 -6 24 -8 28 -4 5 4 6 -1 2 -10 -3 -10 0 -19
10 -22 12 -5 14 -1 10 14 -3 10 -2 19 2 18 38 -5 96 38 86 65 -4 9 -14 17 -22
17 -8 0 -12 4 -9 9 3 5 -2 11 -12 13 -14 4 -18 14 -16 38 3 39 -4 60 -19 60
-6 0 -7 -3 -4 -6 3 -4 2 -15 -4 -25 -10 -20 -39 -15 -39 7 0 8 -8 14 -17 15
-13 0 -12 3 5 10 13 5 28 7 32 4 5 -3 20 -1 34 5 21 7 26 6 26 -5 0 -8 4 -15
9 -15 10 0 36 29 30 34 -8 8 -35 9 -52 1 -10 -4 -23 -2 -31 4 -10 8 -16 9 -21
1 -9 -15 -66 -12 -95 6 l-25 15 30 -6 c17 -3 38 -8 49 -12 13 -4 16 -2 11 7
-5 7 -4 11 1 7 5 -3 18 1 29 9 16 12 16 14 3 14 -9 0 -28 -4 -41 -9 -14 -5
-34 -7 -45 -4 -17 4 -19 9 -11 27 11 24 49 32 61 13 6 -9 8 -9 8 0 0 6 9 9 20
6 11 -3 20 0 20 6 0 6 -8 11 -17 12 -10 1 -34 2 -53 4 -19 2 -43 3 -53 4 -15
1 -16 3 -5 15 7 7 19 11 27 8 8 -3 12 -1 8 4 -3 6 4 11 15 11 21 2 40 21 33
33 -2 4 2 7 10 7 12 0 12 -3 2 -15 -10 -13 -9 -14 12 -3 16 9 21 10 16 1 -4
-7 -1 -11 6 -9 31 4 43 -3 19 -12 -22 -8 -21 -8 8 -4 22 3 32 0 32 -9 0 -7 18
-18 40 -25 33 -10 40 -16 40 -36 0 -16 -6 -25 -16 -25 -8 0 -13 4 -9 9 3 6
-16 9 -45 8 -27 -1 -50 -5 -50 -9 0 -5 5 -9 10 -9 6 -1 15 -3 20 -4 6 -1 21
-3 35 -4 22 -1 25 -4 19 -28 -4 -16 -13 -32 -21 -36 -11 -7 -11 -12 -2 -23 19
-23 38 -17 36 14 -2 22 2 27 23 28 50 1 61 4 55 13 -9 16 35 35 48 22 8 -8 3
-11 -17 -11 -16 0 -25 -4 -21 -10 4 -7 24 -8 50 -4 l44 6 -1 -31 c-1 -25 -5
-31 -24 -31 -12 0 -35 -5 -51 -11 -22 -8 -30 -7 -39 5 -6 9 -17 16 -25 16 -11
0 -11 -2 1 -11 12 -9 11 -10 -7 -6 -15 3 -23 0 -23 -8 0 -17 23 -32 27 -19 4
13 61 6 69 -8 4 -6 -2 -8 -15 -3 -16 5 -21 2 -21 -12 0 -10 4 -14 8 -8 4 6 13
10 20 11 28 2 32 5 32 22 0 15 6 18 30 14 17 -2 30 -9 30 -14 0 -6 -9 -8 -20
-5 -11 3 -20 1 -20 -3 0 -5 10 -10 22 -12 14 -2 24 -11 26 -23 2 -12 0 -16 -5
-9 -9 11 -58 12 -70 1 -3 -4 5 -7 18 -8 l24 -1 -25 -8 c-14 -4 -18 -9 -10 -10
9 -1 4 -6 -10 -11 -24 -10 -24 -11 -6 -25 15 -11 17 -17 8 -26 -8 -8 -14 -4
-22 17 -6 15 -12 26 -13 24 -2 -2 -9 -13 -17 -23 -12 -16 -12 -18 -1 -11 11 6
13 2 9 -17 -4 -21 -1 -24 14 -20 10 2 18 -1 18 -7 0 -6 -9 -11 -20 -11 -11 0
-20 -4 -20 -10 0 -5 7 -7 16 -3 13 5 15 2 9 -15 -5 -18 -2 -22 14 -22 12 0 21
5 21 11 0 5 -5 7 -12 3 -8 -5 -9 0 -5 17 4 13 7 27 7 32 0 4 6 7 14 7 8 0 16
10 18 22 2 17 10 22 28 22 14 0 28 5 33 10 5 7 12 5 21 -7 11 -14 19 -16 40
-7 14 5 26 16 26 24 0 21 33 12 61 -16 25 -25 29 -44 16 -65 -11 -17 -24 -16
-30 1 -4 10 0 14 14 11 16 -3 18 -1 8 17 l-11 20 -19 -21 c-15 -16 -17 -25 -9
-40 14 -27 13 -34 -5 -28 -8 4 -17 2 -20 -3 -3 -4 -1 -10 4 -12 4 -1 12 -14
16 -28 7 -24 6 -24 -7 -6 -19 25 -32 6 -23 -34 5 -22 12 -30 28 -30 18 0 19 2
7 10 -8 5 -11 12 -7 17 9 8 28 -17 21 -28 -2 -4 3 -24 12 -44 8 -20 14 -49 12
-64 -3 -24 -5 -22 -30 24 -14 28 -35 58 -46 68 -11 10 -26 31 -32 47 -13 32
-40 31 -40 -1 0 -10 -7 -19 -15 -19 -8 0 -20 -9 -27 -20 -8 -12 -24 -20 -41
-20 -15 0 -26 4 -23 9 3 5 16 7 29 4 19 -4 20 -3 5 7 -13 8 -24 8 -37 0 -26
-13 -34 -13 -25 2 4 7 3 8 -4 4 -24 -15 -6 -59 26 -62 28 -2 32 -5 32 -20 0
-8 -7 -22 -15 -30 -13 -14 -15 -14 -15 0 0 9 -4 16 -9 16 -5 0 -8 -8 -7 -17 4
-23 34 -29 42 -9 8 21 24 21 24 0 0 -8 4 -13 9 -9 5 3 15 -12 22 -32 6 -21 20
-48 30 -61 10 -13 15 -30 12 -38 -3 -9 2 -14 15 -14 12 0 22 -9 26 -22 7 -22
7 -22 16 -3 6 15 3 25 -17 43 -24 22 -26 52 -4 52 7 0 7 9 0 27 -13 36 2 50
36 35 15 -7 25 -8 25 -2 0 6 5 10 11 10 6 0 9 -5 7 -12 -2 -6 10 -24 26 -39
27 -24 29 -30 19 -48 -10 -16 -10 -23 2 -35 17 -17 20 -30 5 -21 -5 3 -10 4
-10 1 0 -3 9 -10 20 -16 16 -8 20 -8 18 2 -2 7 3 12 10 10 7 -1 18 2 25 8 7 5
23 19 37 30 19 15 21 19 9 20 -9 0 -20 -8 -23 -17 -6 -14 -9 -15 -16 -4 -5 9
-3 20 6 28 21 21 17 39 -4 20 -14 -13 -21 -14 -30 -5 -18 18 -14 26 16 31 24
4 25 5 6 11 -12 4 -26 25 -35 49 -8 24 -21 41 -28 39 -7 -1 -10 2 -7 7 3 5 0
24 -8 42 -12 30 -12 38 2 69 13 26 25 36 51 41 30 6 39 3 63 -22 16 -16 31
-29 33 -29 2 0 1 25 -2 57 -5 41 -3 54 6 49 6 -4 9 -12 6 -17 -4 -5 -1 -9 4
-9 15 0 14 16 -3 32 -20 21 -32 62 -15 54 8 -4 5 0 -5 8 -30 25 4 21 48 -5 38
-22 39 -45 3 -52 -18 -3 -17 -5 6 -6 19 -1 27 4 27 15 0 11 5 14 16 10 9 -3
19 -6 22 -7 4 0 -2 -4 -13 -8 -16 -7 -13 -9 18 -13 20 -2 37 0 37 4 0 4 -7 8
-15 8 -8 0 -15 5 -15 10 0 6 -7 10 -15 10 -8 0 -15 3 -15 8 0 4 -17 18 -38 31
-21 13 -44 36 -51 53 -10 23 -16 26 -27 17 -11 -9 -14 -7 -14 9 0 12 5 24 11
28 14 8 130 8 157 0 13 -4 22 -1 26 9 3 9 2 13 -4 10 -6 -3 -10 -2 -10 3 0 6
-8 9 -17 7 -50 -10 -103 -12 -103 -4 0 5 11 9 25 9 14 0 25 4 25 9 0 5 -27 7
-61 5 -56 -3 -61 -2 -56 16 3 10 2 20 -3 22 -4 2 -10 22 -13 45 l-7 41 31 -15
c16 -8 33 -12 36 -9 4 3 -8 11 -26 17 -39 14 -48 30 -57 107 l-7 62 -161 0
c-88 0 -156 -4 -149 -8 16 -10 35 -121 23 -141 -5 -9 -10 -11 -10 -4 0 8 -18
11 -57 9 -32 -2 -50 -2 -40 1 14 4 16 8 6 19 -6 8 -20 14 -31 14 -11 0 -26 6
-33 13 -35 30 -45 37 -59 37 -8 0 -18 4 -21 10 -3 6 4 10 17 10 13 0 31 7 41
14 15 11 15 15 3 19 -8 3 -258 6 -556 7 l-540 0 4 -76 c3 -42 3 -74 -1 -71 -3
4 -14 -4 -23 -16 l-18 -22 -11 28 c-6 16 -11 57 -11 93 l0 64 -292 -1 c-161
-1 -285 -3 -276 -6z m140 -135 c-6 -6 -15 -8 -19 -4 -4 4 -1 11 7 16 19 12 27
3 12 -12z m653 12 c3 -6 -1 -7 -9 -4 -18 7 -21 14 -7 14 6 0 13 -4 16 -10z
m-300 -20 c-3 -5 -30 -9 -58 -8 l-52 1 50 7 c28 4 54 8 58 8 5 1 5 -2 2 -8z
m893 1 c9 -5 4 -8 -16 -7 -17 1 -28 4 -25 9 6 9 25 9 41 -2z m120 -8 c-4 -20
-27 -27 -47 -14 -19 12 -4 31 25 31 19 0 25 -5 22 -17z m-1272 -18 c13 -18 28
-25 49 -24 29 1 29 1 5 9 -23 7 -23 8 -3 9 12 1 25 -4 28 -9 5 -8 11 -7 21 1
19 15 30 4 15 -15 -16 -19 -62 -29 -74 -17 -6 6 -15 11 -21 11 -5 0 -6 -3 -3
-7 4 -3 -1 -12 -10 -18 -14 -11 -7 -12 40 -9 31 2 57 1 57 -3 0 -5 20 -9 45
-9 24 -1 52 -5 62 -9 30 -14 -45 -22 -90 -11 -26 7 -47 7 -68 -1 -26 -10 -30
-10 -25 3 4 10 -2 14 -24 14 -31 0 -48 -15 -28 -23 8 -3 6 -6 -4 -6 -10 -1
-18 4 -18 9 0 6 -7 10 -15 10 -8 0 -14 -3 -13 -7 0 -5 -2 -16 -6 -25 -7 -15
-9 -15 -26 2 -28 28 -28 55 0 86 14 15 19 24 13 20 -7 -4 -13 -2 -13 3 0 6 6
11 13 11 8 0 7 4 -3 11 -12 9 -11 9 5 4 40 -15 75 -17 75 -6 0 7 -4 9 -10 6
-5 -3 -10 -1 -10 4 0 19 16 12 36 -14z m1088 7 c3 -5 -1 -9 -9 -9 -8 0 -12 4
-9 9 3 4 7 8 9 8 2 0 6 -4 9 -8z m-589 -30 c-13 -2 -32 2 -42 8 -15 9 -12 10
15 5 23 -5 32 -3 32 7 0 10 3 9 10 -2 7 -12 4 -16 -15 -18z m147 19 c-12 -7
-62 -4 -62 5 0 2 17 4 38 4 23 0 32 -3 24 -9z m558 -26 c0 -5 -5 -3 -10 5 -5
8 -10 20 -10 25 0 6 5 3 10 -5 5 -8 10 -19 10 -25z m-876 8 c4 -9 -4 -13 -22
-13 -16 0 -34 6 -41 13 -10 10 -15 8 -26 -6 -12 -16 -17 -17 -37 -6 l-23 13
30 7 c48 10 114 5 119 -8z m696 7 c0 -5 -7 -7 -15 -4 -8 4 -15 8 -15 10 0 2 7
4 15 4 8 0 15 -4 15 -10z m-873 -22 c-3 -8 -6 -5 -6 6 -1 11 2 17 5 13 3 -3 4
-12 1 -19z m-267 2 c0 -5 -2 -10 -4 -10 -3 0 -8 5 -11 10 -3 6 -1 10 4 10 6 0
11 -4 11 -10z m590 -9 l25 -2 -25 -10 c-17 -7 -26 -7 -28 1 -3 8 -8 8 -17 0
-9 -8 -15 -8 -20 0 -3 6 -11 7 -17 4 -6 -4 -8 -3 -5 2 5 9 27 10 87 5z m70
-13 c0 -5 -9 -4 -20 2 -11 6 -20 12 -20 14 0 2 9 2 20 -1 11 -3 20 -9 20 -15z
m230 12 c0 -5 -4 -10 -9 -10 -6 0 -13 5 -16 10 -3 6 1 10 9 10 9 0 16 -4 16
-10z m380 6 c0 -9 -40 -13 -46 -5 -3 5 6 9 20 9 14 0 26 -2 26 -4z m-816 -28
c18 -26 20 -38 6 -38 -5 0 -10 5 -10 11 0 13 -20 34 -40 42 -10 4 -8 6 7 6 12
1 29 -9 37 -21z m326 18 c0 -2 -7 -7 -16 -10 -8 -3 -12 -2 -9 4 6 10 25 14 25
6z m-186 -31 c-22 -16 -58 -20 -49 -5 4 6 10 8 14 6 4 -3 13 -1 21 5 24 14 35
10 14 -6z m-182 -4 c-10 -6 -9 -10 7 -14 28 -7 27 -27 -1 -26 -22 0 -22 1 -3
9 17 7 15 9 -12 9 -32 1 -48 12 -36 25 3 3 18 6 32 6 18 0 22 -3 13 -9z m948
-2 c0 -6 6 -9 13 -6 8 3 20 1 28 -4 12 -8 12 -10 -1 -19 -8 -5 -21 -8 -28 -5
-8 3 -21 5 -29 5 -12 0 -13 3 -4 13 6 8 8 17 4 20 -3 4 -1 7 5 7 7 0 12 -5 12
-11z m-60 -3 c0 -2 -7 -7 -16 -10 -8 -3 -12 -2 -9 4 6 10 25 14 25 6z m-1170
-10 c0 -3 -4 -8 -10 -11 -5 -3 -10 -1 -10 4 0 6 5 11 10 11 6 0 10 -2 10 -4z
m697 -12 c-3 -3 -12 -4 -19 -1 -8 3 -5 6 6 6 11 1 17 -2 13 -5z m-693 -22 c3
7 2 0 -1 -16 -4 -19 -2 -27 5 -22 6 4 8 -2 4 -16 -5 -19 -7 -20 -10 -5 -2 9
-10 17 -18 17 -9 0 -13 9 -12 24 2 18 6 22 14 15 8 -7 14 -6 18 3z m56 -17 c0
-14 -4 -25 -10 -25 -11 0 -14 33 -3 43 11 11 13 8 13 -18z m44 10 c3 -8 1 -15
-4 -15 -5 0 -7 -7 -4 -15 4 -8 1 -15 -4 -15 -16 0 -24 18 -12 25 8 5 7 11 -1
21 -9 11 -8 14 4 14 8 0 17 -7 21 -15z m131 5 c-3 -5 -11 -10 -16 -10 -6 0 -7
5 -4 10 3 6 11 10 16 10 6 0 7 -4 4 -10z m-355 -30 c0 -11 -2 -20 -4 -20 -2 0
-6 9 -9 20 -3 11 -1 20 4 20 5 0 9 -9 9 -20z m44 5 c-4 -8 -8 -15 -10 -15 -2
0 -4 7 -4 15 0 8 4 15 10 15 5 0 7 -7 4 -15z m36 -1 c0 -8 -4 -12 -10 -9 -5 3
-10 10 -10 16 0 5 5 9 10 9 6 0 10 -7 10 -16z m-36 -64 c2 0 2 10 -1 23 -4 19
-3 20 7 4 14 -22 5 -37 -18 -30 -12 3 -18 15 -20 36 l-2 32 15 -32 c8 -18 16
-33 19 -33z m1484 42 c2 -8 -10 -12 -35 -13 -28 0 -33 -2 -19 -8 11 -4 15 -10
10 -13 -5 -4 -20 3 -34 15 -16 12 -18 18 -7 14 9 -4 17 -2 17 4 0 6 4 8 8 5 4
-2 14 -1 22 4 18 11 32 8 38 -8z m-1447 -11 c7 11 9 10 9 -4 0 -10 4 -15 10
-12 6 3 7 -1 4 -9 -3 -9 -8 -16 -9 -16 -9 0 -35 33 -34 43 0 7 3 7 6 -2 5 -11
7 -11 14 0z m1437 -46 c-3 -3 -9 2 -12 12 -6 14 -5 15 5 6 7 -7 10 -15 7 -18z
m30 11 c-7 -8 -15 -12 -17 -11 -5 6 10 25 20 25 5 0 4 -6 -3 -14z m279 8 c-3
-3 -12 -4 -19 -1 -8 3 -5 6 6 6 11 1 17 -2 13 -5z m328 -4 c3 -6 -1 -7 -9 -4
-18 7 -21 14 -7 14 6 0 13 -4 16 -10z m-815 -4 c0 -3 -4 -8 -10 -11 -5 -3 -10
-1 -10 4 0 6 5 11 10 11 6 0 10 -2 10 -4z m-33 -40 c-4 -9 -12 -16 -18 -16 -8
0 -7 5 2 17 13 15 12 15 -8 5 -33 -18 -41 -14 -13 8 27 20 47 12 37 -14z
m-1247 -120 c-7 -7 -13 -7 -20 0 -6 6 -3 10 10 10 13 0 16 -4 10 -10z m-160
-56 c-6 -11 -13 -20 -16 -20 -2 0 0 9 6 20 6 11 13 20 16 20 2 0 0 -9 -6 -20z
m1989 -55 c43 -49 67 -101 36 -75 -8 7 -15 18 -15 25 0 7 -16 27 -35 44 -19
17 -35 33 -35 36 0 13 26 -3 49 -30z m-76 -5 c-3 -11 -7 -20 -9 -20 -2 0 -4 9
-4 20 0 11 4 20 9 20 5 0 7 -9 4 -20z m-1809 -19 c3 -5 0 -14 -7 -19 -10 -8
-13 -6 -14 9 -2 19 11 26 21 10z m36 -21 c0 -5 -2 -10 -4 -10 -3 0 -8 5 -11
10 -3 6 -1 10 4 10 6 0 11 -4 11 -10z m1815 -80 c-3 -5 -12 -10 -18 -10 -7 0
-6 4 3 10 19 12 23 12 15 0z m-1845 -22 c0 -6 -6 -5 -15 2 -8 7 -15 14 -15 16
0 2 7 1 15 -2 8 -4 15 -11 15 -16z m1870 -8 c0 -5 -7 -10 -16 -10 -8 0 -12 5
-9 10 3 6 10 10 16 10 5 0 9 -4 9 -10z"/>
<path d="M180 1626 c0 -2 7 -9 15 -16 13 -11 14 -10 9 4 -5 14 -24 23 -24 12z"/>
<path d="M1763 1836 c2 -6 23 -11 46 -11 48 0 68 14 24 16 -15 1 -38 3 -51 4
-13 1 -21 -2 -19 -9z"/>
<path d="M1850 1800 c0 -6 7 -10 15 -10 8 0 15 2 15 4 0 2 -7 6 -15 10 -8 3
-15 1 -15 -4z"/>
<path d="M1780 1790 c0 -5 5 -10 10 -10 6 0 10 5 10 10 0 6 -4 10 -10 10 -5 0
-10 -4 -10 -10z"/>
<path d="M1581 1770 c-7 -4 1 -7 18 -8 17 0 31 1 31 3 0 7 -39 12 -49 5z"/>
<path d="M1674 1719 c-3 -5 6 -9 20 -9 31 0 34 6 6 13 -11 3 -23 1 -26 -4z"/>
<path d="M1650 1660 c0 -5 7 -10 15 -10 8 0 15 5 15 10 0 6 -7 10 -15 10 -8 0
-15 -4 -15 -10z"/>
<path d="M2412 1607 c59 -28 108 -56 108 -62 0 -5 12 -10 28 -11 15 0 36 -4
47 -8 16 -6 17 -6 5 3 -13 9 -12 11 5 11 15 0 17 2 6 9 -8 5 -12 15 -9 22 4 9
-2 14 -17 14 -12 0 -22 -5 -22 -12 0 -6 6 -9 14 -6 7 3 13 -2 13 -11 0 -17 -9
-15 -79 21 -25 12 -52 23 -59 23 -7 0 -15 7 -18 15 -4 8 -14 15 -24 15 -10 0
-31 7 -46 15 -16 8 -36 15 -44 15 -8 0 33 -24 92 -53z"/>
<path d="M1810 1610 c0 -5 7 -10 15 -10 8 0 15 5 15 10 0 6 -7 10 -15 10 -8 0
-15 -4 -15 -10z"/>
<path d="M1869 1602 c0 -10 -3 -12 -6 -5 -3 10 -8 9 -20 -3 -8 -8 -14 -17 -11
-19 7 -7 48 7 48 17 0 5 5 6 10 3 6 -3 10 -2 10 3 0 18 -30 22 -31 4z"/>
<path d="M1621 1593 c7 -10 14 -19 15 -21 1 -2 4 4 8 13 3 9 2 13 -4 10 -6 -3
-10 -1 -10 4 0 6 -5 11 -11 11 -8 0 -7 -6 2 -17z"/>
<path d="M1760 1600 c0 -5 5 -10 11 -10 5 0 7 5 4 10 -3 6 -8 10 -11 10 -2 0
-4 -4 -4 -10z"/>
<path d="M2367 1603 c-12 -12 -7 -23 11 -23 13 0 14 2 3 9 -11 7 -11 9 0 14 8
3 9 6 3 6 -6 1 -14 -2 -17 -6z"/>
<path d="M1685 1590 c4 -7 9 -22 10 -34 1 -11 3 -24 4 -28 0 -5 11 -8 24 -8
18 0 19 2 7 10 -8 5 -11 10 -6 10 5 0 18 -7 28 -17 11 -9 18 -11 18 -5 0 14
-40 53 -79 76 -10 7 -12 5 -6 -4z"/>
<path d="M2278 1593 c7 -3 16 -2 19 1 4 3 -2 6 -13 5 -11 0 -14 -3 -6 -6z"/>
<path d="M2520 1590 c0 -6 7 -10 15 -10 8 0 15 2 15 4 0 2 -7 6 -15 10 -8 3
-15 1 -15 -4z"/>
<path d="M1798 1523 c7 -3 16 -2 19 1 4 3 -2 6 -13 5 -11 0 -14 -3 -6 -6z"/>
<path d="M1796 1501 c-4 -7 -5 -15 -2 -18 9 -9 19 4 14 18 -4 11 -6 11 -12 0z"/>
<path d="M2300 1493 c0 -12 3 -14 8 -7 4 7 18 14 32 17 21 4 20 4 -7 6 -25 1
-33 -3 -33 -16z"/>
<path d="M2430 1490 c-18 -12 -2 -12 25 0 13 6 15 9 5 9 -8 0 -22 -4 -30 -9z"/>
<path d="M1750 1483 c5 -2 8 -9 4 -14 -3 -5 0 -9 6 -9 15 0 7 23 -8 26 -7 1
-8 0 -2 -3z"/>
<path d="M2324 1475 c4 -24 16 -30 16 -7 0 12 -4 22 -9 22 -5 0 -8 -7 -7 -15z"/>
<path d="M2690 1481 c0 -5 5 -13 10 -16 6 -3 10 -2 10 4 0 5 -4 13 -10 16 -5
3 -10 2 -10 -4z"/>
<path d="M2396 1467 c3 -10 9 -15 12 -12 3 3 0 11 -7 18 -10 9 -11 8 -5 -6z"/>
<path d="M10 1461 c0 -10 26 -9 36 2 4 4 -2 7 -14 7 -12 0 -22 -4 -22 -9z"/>
<path d="M901 1434 c0 -11 3 -14 6 -6 3 7 2 16 -1 19 -3 4 -6 -2 -5 -13z"/>
<path d="M1940 1405 c-7 -9 -11 -18 -8 -20 3 -3 11 1 18 10 7 9 11 18 8 20 -3
3 -11 -1 -18 -10z"/>
<path d="M1981 1415 c1 -19 18 -51 18 -35 0 8 -4 22 -9 30 -5 8 -9 11 -9 5z"/>
<path d="M1546 1373 c-6 -14 -5 -15 5 -6 7 7 10 15 7 18 -3 3 -9 -2 -12 -12z"/>
<path d="M2698 1373 c7 -3 16 -2 19 1 4 3 -2 6 -13 5 -11 0 -14 -3 -6 -6z"/>
<path d="M1750 1360 c-13 -8 -12 -10 3 -10 9 0 17 5 17 10 0 12 -1 12 -20 0z"/>
<path d="M2628 1363 c7 -3 16 -2 19 1 4 3 -2 6 -13 5 -11 0 -14 -3 -6 -6z"/>
<path d="M1945 1350 c-11 -5 -14 -9 -6 -9 8 -1 20 -9 27 -18 12 -16 13 -15 14
10 0 29 -4 31 -35 17z"/>
<path d="M1999 1358 c-7 -23 -5 -37 3 -32 16 10 37 -23 32 -49 -4 -20 -4 -20
4 -2 12 27 4 53 -19 60 -11 4 -17 11 -14 16 4 5 4 9 1 9 -3 0 -6 -1 -7 -2z"/>
<path d="M2040 1351 c0 -14 18 -23 31 -15 8 4 7 9 -2 15 -18 11 -29 11 -29 0z"/>
<path d="M2518 1353 c7 -3 16 -2 19 1 4 3 -2 6 -13 5 -11 0 -14 -3 -6 -6z"/>
<path d="M1907 1343 c-4 -3 -7 -13 -7 -22 1 -13 3 -13 11 2 11 19 8 33 -4 20z"/>
<path d="M1920 1320 c0 -5 5 -10 10 -10 6 0 10 5 10 10 0 6 -4 10 -10 10 -5 0
-10 -4 -10 -10z"/>
<path d="M1915 1280 c-38 -25 -75 -26 -76 -2 0 14 -2 13 -9 -4 -8 -22 -60 -40
-60 -21 0 5 -10 -2 -21 -17 -12 -15 -19 -30 -15 -33 3 -4 6 -2 6 4 0 6 16 11
36 11 34 0 35 -1 14 -11 -29 -15 -28 -31 2 -34 19 -2 20 -1 5 5 -15 6 -1 17
67 52 87 44 122 70 95 70 -8 0 -27 -9 -44 -20z"/>
<path d="M1727 1251 c-4 -17 -3 -21 5 -13 5 5 8 16 6 23 -3 8 -7 3 -11 -10z"/>
<path d="M1378 1228 c-20 -20 -24 -48 -7 -48 19 0 49 21 49 34 0 26 -24 34
-42 14z"/>
<path d="M1922 1242 c-8 -6 -2 -9 18 -9 20 0 26 3 18 9 -7 4 -15 8 -18 8 -3 0
-11 -4 -18 -8z"/>
<path d="M2590 1246 c0 -2 7 -7 16 -10 8 -3 12 -2 9 4 -6 10 -25 14 -25 6z"/>
<path d="M1630 1190 l-3 -55 -7 45 c-6 31 -6 22 -4 -33 3 -55 1 -77 -6 -72 -6
4 -9 13 -7 19 3 7 1 19 -5 27 -7 10 -8 -1 -4 -34 7 -58 15 -75 27 -56 6 10 9
6 9 -14 0 -22 3 -25 13 -16 18 18 19 79 1 79 -19 0 -15 42 5 48 10 3 12 -1 8
-18 -3 -13 -2 -19 3 -14 4 5 11 25 14 44 3 19 3 29 0 23 -14 -30 -33 -12 -37
35 l-3 47 -4 -55z"/>
<path d="M280 1218 c0 -4 9 -8 20 -8 11 0 20 4 20 9 0 6 -9 9 -20 8 -11 -1
-20 -5 -20 -9z"/>
<path d="M1652 1200 c0 -19 2 -27 5 -17 2 9 2 25 0 35 -3 9 -5 1 -5 -18z"/>
<path d="M1576 1204 c-4 -9 -4 -19 -1 -22 2 -3 7 3 11 12 4 9 4 19 1 22 -2 3
-7 -3 -11 -12z"/>
<path d="M2413 1207 c37 -24 55 -43 58 -62 3 -15 13 -21 39 -22 19 -1 29 0 23
3 -7 3 -14 18 -14 32 -1 17 -3 21 -6 10 -5 -22 -33 -24 -33 -3 0 23 -37 55
-62 54 -22 0 -22 -1 -5 -12z"/>
<path d="M85 1201 c-3 -5 -1 -12 5 -16 5 -3 10 1 10 9 0 18 -6 21 -15 7z"/>
<path d="M240 1178 c0 -5 -4 -6 -10 -3 -5 3 -10 2 -10 -4 0 -6 13 -8 33 -4 42
8 43 10 12 15 -14 3 -25 1 -25 -4z"/>
<path d="M1541 1174 c0 -11 3 -14 6 -6 3 7 2 16 -1 19 -3 4 -6 -2 -5 -13z"/>
<path d="M26 1168 c3 -5 -2 -8 -11 -8 -11 0 -15 -8 -13 -29 1 -16 6 -27 10
-25 5 3 12 -5 17 -18 9 -21 10 -21 10 -3 1 11 -7 31 -16 44 -9 14 -12 21 -6
18 6 -4 13 -4 16 0 2 5 2 3 1 -4 -2 -7 3 -10 11 -6 8 3 12 10 8 17 -4 6 2 4
12 -4 15 -12 17 -12 10 -1 -6 11 -4 13 8 8 10 -3 17 -2 17 2 0 5 -18 11 -39
13 -22 2 -37 0 -35 -4z"/>
<path d="M2363 1168 c-19 -9 -23 -19 -23 -60 0 -26 1 -50 3 -51 1 -2 -5 -12
-13 -22 -9 -11 -10 -16 -2 -11 7 4 12 2 13 -6 0 -15 149 -122 149 -108 0 6 -5
10 -11 10 -5 0 -7 6 -3 13 4 6 4 9 -1 5 -5 -5 -14 1 -22 12 -8 11 -21 20 -29
20 -8 0 -13 4 -10 8 7 12 -33 44 -44 37 -6 -4 -10 -1 -10 5 0 7 9 14 20 17 16
4 18 9 9 25 -9 16 -8 19 2 16 8 -3 16 -15 19 -29 6 -23 6 -23 12 6 4 19 1 36
-8 46 -13 15 -10 29 7 29 5 0 15 -12 23 -27 l15 -28 1 26 c0 28 -41 79 -62 78
-7 0 -23 -5 -35 -11z"/>
<path d="M1357 1163 c-11 -10 -8 -21 6 -26 6 -2 1 -2 -11 0 -14 2 -21 0 -17
-6 3 -6 -2 -25 -11 -43 -26 -51 -34 -96 -18 -102 8 -3 14 -11 14 -18 0 -6 9
-31 21 -55 25 -53 20 -112 -12 -120 -10 -3 -19 -14 -19 -24 0 -22 11 -24 29
-6 11 10 12 4 6 -33 -5 -25 -9 -55 -11 -67 -3 -31 -14 -45 -30 -39 -8 3 -14
-1 -14 -9 0 -8 -7 -15 -15 -15 -12 0 -13 -3 -3 -19 7 -11 16 -18 20 -15 4 3 5
-2 2 -10 -7 -18 -101 -66 -133 -69 -12 -1 -33 -16 -47 -34 -14 -19 -20 -32
-13 -31 7 2 15 -6 17 -16 2 -11 11 -26 18 -34 13 -12 13 -17 0 -36 -8 -13 -11
-28 -7 -35 6 -10 10 -9 14 3 4 10 18 16 37 16 17 0 29 4 26 9 -3 5 5 11 19 13
14 3 25 1 25 -4 0 -5 5 -6 10 -3 6 4 10 3 9 -2 -3 -18 2 -30 20 -50 26 -28 53
-92 44 -107 -3 -6 -2 -8 2 -3 9 7 65 -97 65 -120 0 -17 -47 -17 -53 0 -4 8 -6
6 -6 -4 -1 -11 -12 -17 -33 -18 -56 -4 -58 -4 -58 -15 0 -6 -4 -5 -9 2 -6 10
-11 10 -21 -4 -14 -16 -3 -16 117 0 7 1 16 5 19 9 4 4 15 7 24 7 8 0 34 9 55
21 35 18 36 20 12 16 -25 -4 -30 0 -46 37 -21 48 -28 68 -29 80 0 5 -5 12 -10
15 -6 3 -12 13 -14 21 -2 8 -9 21 -17 29 -9 11 -10 16 -2 19 18 6 13 30 -6 28
-13 -1 -17 5 -15 24 2 19 0 22 -8 10 -5 -8 -10 -10 -11 -5 0 6 -2 23 -3 38
l-3 28 24 -23 c13 -12 21 -28 19 -35 -3 -7 -2 -15 3 -17 11 -7 10 27 -2 42 -5
6 -6 12 -2 12 4 0 2 6 -4 14 -9 10 -9 16 -1 21 6 4 14 4 17 1 4 -3 1 -6 -7 -6
-10 0 -10 -3 0 -15 18 -22 31 -18 27 8 -2 12 -2 16 0 9 3 -6 9 -12 14 -12 6 0
7 5 4 10 -3 6 -1 10 4 10 6 0 11 -5 11 -10 0 -11 22 -9 31 3 3 5 13 1 23 -8
13 -14 16 -14 16 -2 0 20 17 17 61 -11 48 -29 58 -28 70 8 13 35 48 50 61 26
9 -16 30 -23 26 -8 -1 4 4 18 11 30 7 13 10 27 6 30 -3 3 -8 -4 -12 -16 -5
-21 -33 -32 -33 -13 0 6 -8 10 -17 9 -36 0 -85 11 -99 23 -8 6 -14 8 -14 4 0
-3 -11 6 -24 22 -29 35 -42 78 -26 88 6 4 8 15 5 26 -5 15 0 20 24 25 26 5 29
9 21 25 -15 27 -14 28 36 49 55 24 54 24 54 3 1 -16 2 -16 15 1 8 11 15 14 15
8 0 -7 5 -12 10 -12 6 0 10 7 10 15 0 21 27 30 44 16 10 -8 16 -8 25 3 16 19
0 28 -36 21 -24 -4 -23 -3 7 10 l35 14 -35 -2 c-32 -2 -35 0 -32 25 4 30 -15
48 -24 23 -6 -13 -8 -14 -15 -3 -7 10 -9 9 -9 -4 0 -22 -23 -23 -43 -3 -13 13
-16 13 -21 0 -7 -20 34 -57 54 -49 27 11 45 9 45 -6 0 -10 -13 -15 -45 -17
-48 -2 -120 15 -120 29 0 4 -10 8 -22 9 -13 0 -18 3 -11 5 9 4 6 15 -7 40 -11
19 -15 34 -10 34 5 0 7 7 4 15 -4 8 -1 15 5 15 21 0 11 18 -14 24 -26 7 -32
20 -15 31 5 3 20 -3 32 -15 22 -21 67 -24 80 -5 5 6 8 5 8 -2 0 -22 17 -14 23
9 4 14 1 26 -8 30 -9 6 -13 26 -13 66 l1 57 10 -42 c5 -24 14 -43 19 -43 6 0
7 8 3 18 -4 9 -10 42 -14 72 -6 47 -8 52 -17 35 -14 -25 -28 -93 -25 -122 2
-22 -15 -40 -27 -28 -3 3 0 10 8 15 11 7 11 11 1 24 -8 9 -10 16 -5 17 5 0 -2
5 -15 10 -32 13 -37 5 -12 -20 11 -11 16 -23 11 -26 -6 -4 -10 -2 -10 4 0 12
-69 33 -82 25 -9 -6 -14 5 -22 56 -4 24 -3 30 3 20 9 -12 11 -12 17 3 3 9 10
14 15 11 12 -7 -2 29 -15 38 -14 10 -21 10 -29 1z m89 -165 c-10 -6 -20 -7
-24 -3 -9 8 20 25 31 18 5 -3 2 -10 -7 -15z m51 -54 c-3 -3 -12 -4 -19 -1 -8
3 -5 6 6 6 11 1 17 -2 13 -5z m233 -188 c0 -11 -19 -15 -25 -6 -3 5 1 10 9 10
9 0 16 -2 16 -4z m-594 -312 c-3 -8 -1 -24 4 -35 6 -11 7 -19 2 -19 -6 0 -12
9 -15 21 -6 21 0 49 10 49 3 0 2 -7 -1 -16z"/>
<path d="M1580 1156 c0 -9 5 -16 10 -16 6 0 10 4 10 9 0 6 -4 13 -10 16 -5 3
-10 -1 -10 -9z"/>
<path d="M1707 1163 c-3 -5 -8 -27 -11 -49 -6 -50 -16 -75 -27 -68 -5 3 -6 -2
-3 -10 3 -9 1 -29 -5 -46 -5 -17 -6 -28 -1 -25 5 3 11 1 15 -5 3 -5 -1 -10
-10 -10 -12 0 -15 -5 -11 -16 3 -9 6 -23 6 -31 0 -14 3 -14 19 1 11 10 25 15
30 11 6 -3 11 0 11 7 0 10 2 10 9 -1 9 -14 55 -17 91 -6 20 6 20 7 -5 27 -15
12 -32 17 -43 13 -13 -5 -14 -3 -6 5 16 16 42 7 83 -29 22 -19 32 -35 28 -45
-4 -9 -3 -16 2 -16 16 0 33 30 27 46 -4 9 1 27 9 40 9 13 11 24 5 24 -5 0 -15
-9 -22 -20 -16 -25 -23 -25 -48 0 -12 12 -17 26 -13 37 7 17 6 17 -20 0 -31
-20 -68 -24 -49 -5 16 16 15 28 -3 28 -8 0 -15 7 -15 15 0 8 5 15 10 15 6 0
10 -5 10 -11 0 -16 20 0 30 25 8 20 9 20 10 -4 1 -23 2 -23 9 -5 5 11 4 25 -1
32 -6 7 -8 22 -5 33 3 13 0 20 -10 20 -10 0 -12 -6 -8 -20 4 -12 1 -27 -5 -35
-6 -8 -9 -19 -5 -25 9 -15 -8 -12 -31 5 -16 12 -17 14 -2 15 20 0 34 38 19 53
-8 8 -11 3 -12 -18 -1 -24 -3 -25 -6 -7 -5 24 -19 29 -26 10 -2 -7 -3 -4 -1 7
4 23 -11 52 -19 38z m33 -113 c0 -5 -4 -10 -10 -10 -5 0 -10 5 -10 10 0 6 5
10 10 10 6 0 10 -4 10 -10z m-42 -42 c-6 -18 -13 -27 -15 -21 -4 11 13 53 22
53 2 0 -1 -15 -7 -32z m43 -20 c-11 -17 -11 -22 1 -30 10 -8 10 -9 -2 -5 -17
4 -25 40 -15 64 4 13 8 14 18 4 9 -9 9 -16 -2 -33z"/>
<path d="M2675 1140 l-50 -7 53 -1 c29 -1 52 2 52 8 0 6 -1 9 -2 8 -2 0 -25
-4 -53 -8z"/>
<path d="M2575 1130 c-19 -8 -19 -9 3 -9 12 -1 22 4 22 9 0 6 -1 10 -2 9 -2 0
-12 -4 -23 -9z"/>
<path d="M2241 1094 c0 -11 3 -14 6 -6 3 7 2 16 -1 19 -3 4 -6 -2 -5 -13z"/>
<path d="M2230 1061 c0 -6 4 -13 10 -16 6 -3 7 1 4 9 -7 18 -14 21 -14 7z"/>
<path d="M2265 1050 c3 -5 11 -10 16 -10 6 0 7 5 4 10 -3 6 -11 10 -16 10 -6
0 -7 -4 -4 -10z"/>
<path d="M862 1019 c-29 -12 -56 -28 -59 -37 -4 -10 -11 -20 -17 -24 -14 -10
11 -88 29 -88 15 0 19 -11 16 -37 -2 -12 11 -17 31 -14 5 0 7 -5 5 -12 -1 -6
5 -11 14 -9 9 1 21 -9 27 -23 11 -24 12 -24 41 -7 16 9 29 19 28 22 -1 3 1 6
6 8 16 5 27 2 27 -9 0 -6 7 -17 15 -26 12 -11 19 -12 29 -4 7 6 16 8 19 4 4
-3 7 -2 7 3 0 10 -36 44 -46 44 -3 0 -2 -4 1 -10 3 -5 1 -10 -4 -10 -6 0 -11
9 -11 20 0 11 5 20 11 20 5 0 7 5 3 12 -4 6 3 4 17 -5 29 -21 46 -22 29 -2
-10 12 -10 15 2 15 20 0 17 -108 -3 -121 -11 -7 -11 -9 -1 -9 7 0 10 -5 7 -10
-4 -6 -11 -8 -16 -5 -5 4 -9 2 -9 -3 0 -18 -52 -61 -81 -67 -17 -4 -28 -9 -25
-12 9 -9 116 28 116 40 0 6 3 8 6 4 3 -3 16 6 28 19 l21 26 20 -22 c16 -18 16
-20 2 -14 -12 4 -17 1 -17 -11 0 -9 -3 -14 -7 -12 -5 3 -19 0 -33 -5 -19 -7
-22 -11 -10 -18 9 -6 20 -4 29 3 12 10 13 8 6 -13 l-8 -25 22 25 21 25 -6 -27
c-4 -18 -2 -28 5 -28 6 0 11 5 11 11 0 5 4 8 9 5 13 -9 24 44 12 58 -15 18 -3
27 26 20 21 -6 23 -4 14 18 -7 19 -6 29 6 41 15 14 15 20 -1 61 -10 25 -22 46
-27 46 -6 0 -7 5 -4 10 4 6 8 22 11 35 4 24 4 25 -16 8 -24 -21 -25 -24 -3
-16 15 6 16 5 3 -9 -13 -14 -16 -14 -23 -1 -5 8 -4 19 1 26 16 20 22 61 11 77
-8 12 -9 10 -4 -6 3 -13 -2 -30 -14 -45 l-20 -24 -1 25 c-1 25 -1 25 -16 5
-15 -19 -15 -19 -9 8 8 28 -3 35 -23 15 -9 -9 -12 -9 -12 0 0 7 -7 12 -16 12
-8 0 -13 4 -9 9 3 5 1 12 -5 16 -11 7 -14 -18 -4 -28 4 -4 8 -19 9 -35 2 -21
-2 -28 -16 -29 -22 -2 -24 8 -8 24 9 9 8 20 -4 45 -9 18 -17 30 -17 26 0 -4
-11 4 -25 17 -29 30 -53 31 -123 4z m83 -48 c-3 -6 -11 -11 -16 -11 -5 0 -4 6
3 14 14 16 24 13 13 -3z m156 -38 c-8 -15 -10 -15 -11 -2 0 17 10 32 18 25 2
-3 -1 -13 -7 -23z m-21 -4 c0 -11 -4 -17 -10 -14 -5 3 -10 13 -10 21 0 8 5 14
10 14 6 0 10 -9 10 -21z m-157 -16 c-7 -2 -19 -2 -25 0 -7 3 -2 5 12 5 14 0
19 -2 13 -5z m-83 -7 c0 -2 -7 -6 -15 -10 -8 -3 -15 -1 -15 4 0 6 7 10 15 10
8 0 15 -2 15 -4z m170 -16 c13 -8 13 -11 1 -19 -7 -5 -10 -14 -6 -20 4 -7 4
-19 1 -28 -5 -12 -9 -13 -20 -4 -16 13 -49 4 -40 -11 4 -6 -2 -7 -17 -3 -48
15 -40 51 8 38 14 -3 23 -1 23 6 0 6 -6 11 -12 11 -7 1 -2 10 11 20 26 23 30
23 51 10z m120 -116 c-7 -17 -7 -23 0 -19 6 3 10 1 10 -5 0 -6 4 -9 8 -6 5 3
9 -1 9 -9 0 -8 -5 -15 -11 -15 -32 1 -52 43 -31 64 8 7 11 17 7 21 -4 5 -2 5
5 1 9 -5 9 -14 3 -32z"/>
<path d="M1130 1019 c0 -5 -5 -7 -12 -3 -7 4 -8 3 -4 -4 4 -6 13 -9 21 -6 8 4
12 10 9 15 -7 12 -14 11 -14 -2z"/>
<path d="M23 1005 c0 -8 4 -15 9 -15 4 0 8 4 8 9 0 6 -4 12 -8 15 -5 3 -9 -1
-9 -9z"/>
<path d="M781 984 c0 -11 3 -14 6 -6 3 7 2 16 -1 19 -3 4 -6 -2 -5 -13z"/>
<path d="M2060 990 c0 -5 4 -10 9 -10 6 0 13 5 16 10 3 6 -1 10 -9 10 -9 0
-16 -4 -16 -10z"/>
<path d="M2302 988 c-7 -7 -12 -16 -12 -21 0 -5 7 -1 16 8 9 9 14 18 12 20 -2
3 -10 -1 -16 -7z"/>
<path d="M160 946 c0 -8 5 -18 11 -22 8 -4 7 -9 -2 -15 -10 -6 -10 -9 -2 -9 7
0 10 -7 6 -17 -5 -12 -3 -14 7 -8 10 6 12 4 7 -8 -4 -10 -1 -17 6 -17 7 0 13
9 14 20 1 11 -2 18 -8 15 -8 -6 -13 9 -10 29 3 15 -10 46 -20 46 -5 0 -9 -6
-9 -14z"/>
<path d="M2074 913 c2 -36 18 -54 31 -34 3 6 1 11 -5 11 -8 0 -8 6 0 20 9 16
8 20 -5 20 -9 0 -13 5 -10 10 3 6 2 10 -4 10 -5 0 -8 -17 -7 -37z"/>
<path d="M2561 921 c-10 -6 -10 -10 -1 -16 13 -8 24 -1 19 14 -3 6 -10 7 -18
2z"/>
<path d="M1300 909 c0 -5 5 -7 10 -4 6 3 10 8 10 11 0 2 -4 4 -10 4 -5 0 -10
-5 -10 -11z"/>
<path d="M2504 898 c1 -6 27 -30 57 -51 l54 -39 -44 41 c-24 22 -47 41 -51 41
-5 0 -11 5 -13 10 -3 6 -4 5 -3 -2z"/>
<path d="M60 880 c0 -13 18 -22 24 -11 3 5 -1 11 -9 15 -8 3 -15 1 -15 -4z"/>
<path d="M1240 886 c0 -2 7 -9 15 -16 12 -10 15 -10 15 4 0 9 -7 16 -15 16 -8
0 -15 -2 -15 -4z"/>
<path d="M1778 863 c13 -3 22 -10 19 -16 -4 -11 25 -14 68 -7 18 3 -60 28 -85
28 -24 -1 -24 -1 -2 -5z"/>
<path d="M1275 810 c3 -26 1 -39 -5 -35 -6 3 -10 -1 -10 -9 0 -9 -4 -16 -10
-16 -5 0 -10 -7 -10 -15 0 -8 3 -15 8 -15 11 0 38 20 28 20 -6 0 -2 6 9 13 14
11 16 21 11 50 -10 52 -28 58 -21 7z"/>
<path d="M192 828 c-1 -7 -4 -37 -6 -66 -3 -46 -1 -52 13 -48 13 5 12 3 -2 -8
-20 -15 -9 -30 12 -17 9 6 10 17 3 42 -5 19 -7 51 -4 72 2 20 0 37 -5 37 -5 0
-10 -6 -11 -12z"/>
<path d="M1250 820 c0 -5 5 -10 11 -10 5 0 7 5 4 10 -3 6 -8 10 -11 10 -2 0
-4 -4 -4 -10z"/>
<path d="M1694 814 c-18 -14 -18 -15 6 -8 31 8 50 24 29 24 -8 0 -24 -7 -35
-16z"/>
<path d="M2318 823 c7 -3 16 -2 19 1 4 3 -2 6 -13 5 -11 0 -14 -3 -6 -6z"/>
<path d="M2484 811 c8 -12 -22 -23 -37 -15 -8 5 -9 4 -2 -3 6 -6 24 -9 42 -6
28 4 30 7 18 19 -15 16 -29 19 -21 5z"/>
<path d="M2698 813 c6 -2 18 -2 25 0 6 3 1 5 -13 5 -14 0 -19 -2 -12 -5z"/>
<path d="M2290 799 c0 -5 5 -7 10 -4 6 3 10 8 10 11 0 2 -4 4 -10 4 -5 0 -10
-5 -10 -11z"/>
<path d="M2539 808 c-6 -21 -5 -37 2 -32 5 3 7 9 4 14 -3 5 7 11 22 13 l28 4
-27 2 c-16 0 -28 0 -29 -1z"/>
<path d="M2274 788 c4 -13 0 -18 -14 -18 -11 0 -20 5 -20 12 0 6 -2 9 -5 6 -3
-3 -2 -16 3 -28 6 -16 11 -19 16 -12 4 7 12 10 17 7 5 -4 9 -2 9 2 0 13 60 15
75 3 8 -7 12 -6 12 3 0 14 -12 17 -56 17 -14 0 -29 6 -34 12 -6 9 -7 8 -3 -4z"/>
<path d="M2376 785 c4 -8 12 -15 20 -15 20 0 17 7 -6 20 -16 9 -18 8 -14 -5z"/>
<path d="M2162 758 c-15 -15 -16 -31 0 -22 7 4 8 3 4 -4 -4 -6 -13 -9 -21 -5
-8 3 -15 0 -15 -7 0 -6 -4 -8 -10 -5 -5 3 -10 2 -10 -4 0 -5 4 -12 10 -16 5
-3 7 -11 4 -18 -2 -7 5 -12 21 -12 22 0 25 4 23 25 -2 15 2 24 9 23 8 -2 10 4
7 15 -5 14 -4 15 5 2 6 -8 8 -24 6 -35 -3 -11 2 -5 11 13 11 26 12 37 3 48
-14 17 -31 18 -47 2z"/>
<path d="M2230 726 c0 -2 7 -9 15 -16 13 -11 14 -10 9 4 -5 14 -24 23 -24 12z"/>
<path d="M2096 679 c4 -13 7 -30 7 -36 0 -7 6 -13 13 -13 8 0 11 -7 9 -15 -16
-50 -14 -48 -33 -34 -15 13 -16 12 -3 -3 8 -10 9 -18 3 -18 -18 0 -20 24 -4
43 14 15 14 17 0 17 -9 0 -19 7 -22 16 -5 14 -4 15 8 5 12 -10 15 -9 13 8 -1
12 -3 21 -4 21 -7 0 -73 -70 -73 -77 0 -4 4 -15 10 -23 6 -9 5 -17 -3 -23 -8
-6 -8 -7 3 -4 8 2 14 12 12 21 -3 14 0 15 15 5 10 -7 31 -27 47 -46 22 -26 26
-37 17 -46 -6 -6 -11 -15 -11 -21 0 -5 6 -1 14 9 13 18 16 16 57 -30 82 -90
91 -100 133 -145 53 -56 61 -75 32 -76 -35 -3 -88 -13 -94 -19 -3 -2 -11 3
-19 13 -14 16 -14 16 -9 0 4 -15 -1 -18 -25 -18 -33 0 -32 -14 1 -23 11 -3 18
-1 15 4 -4 5 8 7 24 5 17 -2 28 1 25 5 -3 5 7 9 23 10 15 0 39 2 53 4 33 4 62
-4 55 -16 -8 -11 6 -12 23 0 10 6 7 10 -12 15 -23 6 -37 25 -18 27 51 4 91 10
121 21 20 7 45 13 56 13 31 2 85 17 90 24 2 4 -31 1 -73 -6 -42 -8 -84 -15
-92 -16 -8 -1 -21 -6 -27 -10 -8 -5 -13 -3 -13 5 0 9 -3 9 -8 2 -4 -6 -19 -14
-33 -17 -21 -5 -30 -2 -42 16 -8 12 -51 60 -95 107 -45 46 -78 88 -75 94 3 5
2 7 -3 4 -5 -3 -24 9 -42 28 -19 19 -30 34 -25 34 4 0 1 5 -7 10 -19 12 -1 46
24 44 9 -1 16 2 16 7 0 5 -4 9 -9 9 -5 0 -8 16 -6 35 2 22 -1 34 -8 32 -7 -1
-12 7 -12 17 0 11 -6 21 -14 24 -10 3 -11 -2 -5 -19z"/>
<path d="M370 679 c0 -5 5 -7 10 -4 6 3 10 8 10 11 0 2 -4 4 -10 4 -5 0 -10
-5 -10 -11z"/>
<path d="M195 660 c4 -7 2 -16 -5 -20 -8 -5 -6 -9 7 -12 15 -4 19 0 18 15 -1
12 -7 23 -15 25 -8 3 -10 0 -5 -8z"/>
<path d="M313 655 c0 -8 4 -12 9 -9 5 3 6 10 3 15 -9 13 -12 11 -12 -6z"/>
<path d="M2177 610 c-3 -13 -4 -26 -2 -29 3 -2 5 1 5 8 0 8 7 10 20 6 15 -5
18 -3 14 9 -3 9 -10 14 -14 11 -5 -3 -10 0 -12 7 -3 7 -7 2 -11 -12z"/>
<path d="M190 606 c0 -10 5 -26 10 -37 6 -10 7 -19 2 -19 -5 0 -3 -24 5 -52 8
-29 12 -65 10 -80 -2 -16 1 -28 7 -28 6 0 3 -7 -7 -14 -18 -14 -17 -15 4 -21
15 -5 18 -9 9 -15 -7 -4 -9 -16 -5 -29 4 -14 2 -21 -6 -21 -10 0 -10 -3 -1
-12 14 -14 16 -32 3 -24 -4 3 -7 -5 -7 -17 1 -12 -1 -32 -5 -43 -6 -18 -4 -21
12 -17 16 4 19 0 19 -26 0 -19 -4 -30 -10 -26 -6 4 -7 11 -4 17 4 7 2 8 -4 4
-6 -4 -9 -13 -5 -21 3 -8 0 -15 -7 -15 -6 0 -8 -5 -5 -10 5 -8 11 -7 21 1 12
9 14 5 14 -29 0 -23 5 -44 12 -48 8 -5 6 -10 -8 -16 -16 -7 -17 -8 -1 -5 10 1
17 6 17 11 -1 5 4 13 12 17 11 7 11 9 -1 9 -8 0 -11 7 -8 20 3 11 2 20 -1 20
-4 0 -7 30 -6 67 1 37 -2 82 -6 99 -4 18 -3 37 2 42 6 6 4 15 -6 24 -8 9 -12
19 -8 23 8 8 3 135 -6 150 -4 6 -5 21 -3 34 2 14 -1 21 -8 17 -6 -4 -8 5 -4
27 3 23 0 37 -11 46 -14 11 -16 11 -16 -3z m50 -381 c11 -13 10 -14 -4 -9 -9
3 -16 10 -16 15 0 13 6 11 20 -6z"/>
<path d="M1992 579 c1 -17 4 -25 8 -18 7 10 2 49 -5 49 -2 0 -3 -14 -3 -31z"/>
<path d="M1955 560 c-10 -11 -37 -29 -59 -41 -68 -34 -105 -70 -112 -109 -4
-26 -3 -31 5 -20 9 13 11 13 11 -2 0 -10 3 -18 8 -18 12 0 38 20 27 20 -5 0 1
8 15 16 14 8 18 13 9 10 -13 -3 -15 0 -12 15 3 10 10 19 15 19 5 0 7 -4 4 -9
-4 -5 3 -7 13 -4 12 3 17 11 14 19 -3 8 1 14 11 14 10 0 13 -6 10 -15 -4 -10
0 -15 12 -15 16 0 17 2 4 10 -8 5 -11 10 -6 10 5 0 2 7 -5 17 -13 15 -12 15 9
4 20 -11 22 -10 22 15 0 22 3 24 14 15 10 -8 16 -9 21 -1 3 6 10 8 15 5 5 -3
11 -1 14 4 4 5 -4 8 -17 7 -20 -2 -23 1 -19 26 5 33 1 35 -23 8z"/>
<path d="M2240 554 c0 -8 5 -12 10 -9 6 4 8 11 5 16 -9 14 -15 11 -15 -7z"/>
<path d="M394 528 c-5 -7 -2 -8 6 -3 10 6 12 4 7 -8 -3 -10 -2 -17 2 -17 5 0
11 6 14 14 7 17 -20 30 -29 14z"/>
<path d="M453 526 c0 -15 51 -16 64 -1 4 4 -3 5 -16 2 -14 -3 -30 -2 -36 3 -8
7 -12 5 -12 -4z"/>
<path d="M2205 510 c-3 -6 1 -7 9 -4 18 7 21 14 7 14 -6 0 -13 -4 -16 -10z"/>
<path d="M341 501 c-9 -6 -5 -8 13 -8 14 0 26 3 26 8 0 11 -21 11 -39 0z"/>
<path d="M275 490 c-3 -5 -1 -10 4 -10 6 0 11 5 11 10 0 6 -2 10 -4 10 -3 0
-8 -4 -11 -10z"/>
<path d="M1987 493 c-10 -9 -9 -33 1 -33 4 0 8 9 8 20 0 23 0 22 -9 13z"/>
<path d="M2030 479 c0 -11 4 -18 10 -14 5 3 7 12 3 20 -7 21 -13 19 -13 -6z"/>
<path d="M1052 448 c-12 -12 -22 -17 -22 -11 0 7 -7 10 -15 7 -8 -4 -15 -12
-15 -20 0 -7 -6 -11 -14 -8 -7 3 -21 -2 -30 -11 -10 -10 -16 -12 -16 -4 0 9
-3 9 -14 0 -10 -8 -16 -9 -21 -1 -4 6 -13 7 -23 1 -23 -12 -78 -7 -97 9 -8 7
-15 9 -15 6 0 -4 -9 -2 -19 3 -14 8 -22 7 -31 -4 -10 -11 -8 -20 9 -41 23 -30
29 -60 9 -48 -9 6 -9 3 0 -9 16 -19 8 -38 -14 -30 -9 3 -14 0 -12 -8 2 -7 -9
-19 -24 -26 -30 -15 -31 -18 -17 -48 9 -19 9 -19 5 2 -5 29 30 39 45 12 6 -12
15 -17 22 -12 7 4 23 8 36 8 13 0 26 6 28 13 3 6 0 12 -7 12 -6 0 -8 -5 -5
-10 4 -7 -3 -8 -20 -4 -18 4 -30 2 -36 -7 -7 -11 -9 -11 -9 3 0 10 12 25 26
34 22 15 27 15 35 3 6 -10 9 -11 9 -1 0 7 -7 15 -15 18 -12 5 -10 10 9 25 28
22 41 25 30 7 -5 -9 -2 -9 9 1 14 11 17 11 17 0 0 -11 2 -11 10 1 7 11 10 11
10 2 0 -8 5 -10 12 -6 8 5 2 12 -17 21 -19 8 -23 12 -10 11 11 -1 26 1 34 6 8
5 12 5 9 0 -3 -5 3 -17 13 -28 17 -18 18 -17 12 5 -6 23 4 21 38 -8 14 -11 18
-11 29 2 11 13 10 14 -3 10 -8 -4 -18 -2 -22 4 -3 6 -1 11 5 11 7 0 10 6 7 13
-8 21 13 48 32 42 11 -3 26 4 41 20 13 14 19 25 14 25 -5 0 0 7 10 15 11 8 15
15 10 15 -5 0 -20 -10 -32 -22z"/>
<path d="M36 447 c3 -10 9 -15 12 -12 3 3 0 11 -7 18 -10 9 -11 8 -5 -6z"/>
<path d="M1057 397 c-3 -8 -2 -19 3 -26 5 -9 9 -6 13 9 3 12 10 19 16 15 6 -3
11 -1 11 4 0 16 -37 13 -43 -2z"/>
<path d="M320 391 c0 -6 4 -13 10 -16 6 -3 7 1 4 9 -7 18 -14 21 -14 7z"/>
<path d="M1484 393 c3 -6 2 -14 -4 -18 -5 -3 -10 -11 -10 -16 0 -6 7 -3 16 6
14 13 14 19 4 28 -10 9 -11 9 -6 0z"/>
<path d="M1864 384 c-18 -14 -18 -15 4 -4 12 6 22 13 22 15 0 8 -5 6 -26 -11z"/>
<path d="M1376 381 c-7 -11 -5 -13 31 -15 13 0 22 3 20 9 -3 14 -27 15 -27 2
0 -8 -3 -7 -9 2 -6 9 -11 10 -15 2z"/>
<path d="M1630 380 c0 -5 7 -10 16 -10 8 0 12 5 9 10 -3 6 -10 10 -16 10 -5 0
-9 -4 -9 -10z"/>
<path d="M1515 370 c3 -6 0 -10 -8 -10 -22 0 -28 -26 -11 -47 9 -10 12 -12 8
-4 -5 11 -3 13 9 8 10 -3 17 -2 17 3 0 6 -10 10 -22 10 -26 0 -21 5 13 13 27
7 76 -23 61 -37 -4 -4 -2 -6 3 -5 6 2 19 -2 31 -8 17 -10 21 -9 21 2 0 8 -5
11 -10 8 -5 -3 -19 5 -31 18 -22 25 -92 66 -81 49z"/>
<path d="M1910 370 c-9 -6 -10 -10 -3 -10 6 0 15 5 18 10 8 12 4 12 -15 0z"/>
<path d="M1439 353 c-1 -5 -1 -11 0 -15 0 -5 -5 -8 -13 -8 -7 0 -20 -8 -27
-17 -12 -16 -12 -17 2 -6 12 10 18 10 29 0 10 -9 11 -9 6 1 -4 7 -1 15 7 18
15 5 19 34 5 34 -4 0 -9 -3 -9 -7z"/>
<path d="M1645 350 c-3 -5 -1 -10 4 -10 6 0 11 5 11 10 0 6 -2 10 -4 10 -3 0
-8 -4 -11 -10z"/>
<path d="M1682 340 c0 -14 2 -19 5 -12 2 6 2 18 0 25 -3 6 -5 1 -5 -13z"/>
<path d="M1825 350 c3 -5 8 -10 11 -10 2 0 4 5 4 10 0 6 -5 10 -11 10 -5 0 -7
-4 -4 -10z"/>
<path d="M1750 318 c-19 -16 -26 -26 -15 -20 18 9 64 53 54 52 -2 -1 -20 -15
-39 -32z"/>
<path d="M691 324 c0 -11 3 -14 6 -6 3 7 2 16 -1 19 -3 4 -6 -2 -5 -13z"/>
<path d="M1231 314 c6 -7 9 -21 5 -29 -3 -9 -2 -14 3 -11 19 12 19 44 -1 49
-16 4 -17 3 -7 -9z"/>
<path d="M1365 321 c-3 -5 -2 -12 3 -15 5 -3 9 1 9 9 0 17 -3 19 -12 6z"/>
<path d="M1650 326 c0 -2 7 -9 15 -16 13 -11 14 -10 9 4 -5 14 -24 23 -24 12z"/>
<path d="M936 293 c-6 -14 -5 -15 5 -6 7 7 10 15 7 18 -3 3 -9 -2 -12 -12z"/>
<path d="M1011 294 c0 -11 3 -14 6 -6 3 7 2 16 -1 19 -3 4 -6 -2 -5 -13z"/>
<path d="M1035 300 c3 -5 8 -10 11 -10 2 0 4 5 4 10 0 6 -5 10 -11 10 -5 0 -7
-4 -4 -10z"/>
<path d="M1805 300 c-3 -5 -2 -10 4 -10 5 0 13 5 16 10 3 6 2 10 -4 10 -5 0
-13 -4 -16 -10z"/>
<path d="M796 291 c-3 -5 1 -11 9 -15 8 -3 15 -1 15 4 0 13 -18 22 -24 11z"/>
<path d="M1176 288 c3 -4 11 -5 19 -1 21 7 19 12 -4 10 -11 0 -18 -5 -15 -9z"/>
<path d="M865 279 c-4 -6 -5 -12 -2 -15 2 -3 7 2 10 11 7 17 1 20 -8 4z"/>
<path d="M2668 283 c6 -2 18 -2 25 0 6 3 1 5 -13 5 -14 0 -19 -2 -12 -5z"/>
<path d="M261 264 c0 -11 3 -14 6 -6 3 7 2 16 -1 19 -3 4 -6 -2 -5 -13z"/>
<path d="M1067 263 c3 -7 6 -13 8 -13 2 0 5 6 8 13 3 8 -1 14 -8 14 -7 0 -11
-6 -8 -14z"/>
<path d="M130 260 c0 -5 5 -10 11 -10 5 0 7 5 4 10 -3 6 -8 10 -11 10 -2 0 -4
-4 -4 -10z"/>
<path d="M1017 259 c7 -7 15 -10 18 -7 3 3 -2 9 -12 12 -14 6 -15 5 -6 -5z"/>
<path d="M1096 243 c-6 -14 -5 -15 5 -6 7 7 10 15 7 18 -3 3 -9 -2 -12 -12z"/>
<path d="M902 236 c7 -8 15 -12 17 -11 5 6 -10 25 -20 25 -5 0 -4 -6 3 -14z"/>
<path d="M1591 234 c0 -11 3 -14 6 -6 3 7 2 16 -1 19 -3 4 -6 -2 -5 -13z"/>
<path d="M630 231 c0 -6 4 -13 10 -16 6 -3 7 1 4 9 -7 18 -14 21 -14 7z"/>
<path d="M863 222 c-8 -14 -8 -19 1 -19 7 0 13 9 13 19 1 10 1 18 0 18 -1 0
-7 -8 -14 -18z"/>
<path d="M1496 201 c-4 -5 -2 -12 3 -15 5 -4 12 -2 15 3 4 5 2 12 -3 15 -5 4
-12 2 -15 -3z"/>
<path d="M30 190 c0 -5 5 -10 11 -10 5 0 7 5 4 10 -3 6 -8 10 -11 10 -2 0 -4
-4 -4 -10z"/>
<path d="M2090 188 c0 -12 -8 -18 -25 -18 -14 0 -25 -6 -25 -13 0 -7 10 -12
23 -11 34 3 88 25 82 35 -3 4 -13 5 -21 2 -9 -3 -20 0 -25 8 -7 11 -9 11 -9
-3z"/>
<path d="M1250 170 c0 -5 5 -10 11 -10 5 0 7 5 4 10 -3 6 -8 10 -11 10 -2 0
-4 -4 -4 -10z"/>
<path d="M1924 163 c5 -9 1 -13 -11 -14 -10 0 -27 -3 -38 -5 -11 -3 -36 -7
-55 -10 -19 -3 -42 -8 -50 -11 -8 -3 -26 -7 -40 -8 -59 -5 -56 -4 -40 -15 16
-10 79 -3 96 11 6 5 13 7 15 4 3 -2 45 2 93 10 49 8 93 12 97 9 8 -5 39 18 39
29 0 3 -19 1 -41 -4 -30 -7 -45 -6 -57 3 -12 10 -14 10 -8 1z"/>
<path d="M2400 165 c0 -3 9 -15 19 -27 20 -21 77 -35 65 -16 -3 5 -12 7 -20 4
-7 -3 -22 6 -33 19 -18 24 -31 32 -31 20z"/>
<path d="M1081 134 c0 -11 3 -14 6 -6 3 7 2 16 -1 19 -3 4 -6 -2 -5 -13z"/>
<path d="M2357 135 c3 -8 9 -12 14 -9 12 7 11 11 -5 17 -10 4 -13 1 -9 -8z"/>
<path d="M2286 127 c3 -10 9 -15 12 -12 3 3 0 11 -7 18 -10 9 -11 8 -5 -6z"/>
<path d="M1663 114 c-3 -8 -15 -14 -27 -12 -11 1 -26 -1 -32 -5 -17 -10 -68
-12 -83 -2 -9 5 -12 4 -8 -2 4 -6 0 -14 -9 -17 -10 -4 -13 -2 -8 7 5 9 3 8 -7
-1 -12 -11 -12 -14 1 -22 8 -5 21 -5 31 1 9 5 38 11 64 14 66 6 82 13 88 35 6
24 -1 27 -10 4z"/>
<path d="M2460 95 c0 -2 16 -20 35 -41 19 -20 35 -41 35 -45 0 -5 12 -8 28 -8
21 1 22 3 6 6 -11 2 -34 22 -50 43 -25 34 -54 58 -54 45z"/>
<path d="M1740 70 c0 -5 5 -10 11 -10 5 0 7 5 4 10 -3 6 -8 10 -11 10 -2 0 -4
-4 -4 -10z"/>
<path d="M1275 61 c-3 -5 -2 -12 3 -15 5 -3 9 1 9 9 0 17 -3 19 -12 6z"/>
<path d="M1305 60 c-3 -6 1 -7 9 -4 18 7 21 14 7 14 -6 0 -13 -4 -16 -10z"/>
<path d="M1615 40 c-3 -5 -1 -10 4 -10 6 0 11 5 11 10 0 6 -2 10 -4 10 -3 0
-8 -4 -11 -10z"/>
<path d="M2695 41 c-3 -5 -2 -12 3 -15 5 -3 9 1 9 9 0 17 -3 19 -12 6z"/>
<path d="M1420 26 c0 -8 4 -17 9 -20 5 -4 7 3 4 14 -6 23 -13 26 -13 6z"/>
<path d="M2031 14 c0 -11 3 -14 6 -6 3 7 2 16 -1 19 -3 4 -6 -2 -5 -13z"/>
</g>
</svg>
